<svg xmlns="http://www.w3.org/2000/svg" width="960" height="634" viewBox="0 0 960 634" role="img" aria-labelledby="title"><title id="title">Metakai architecture: everything runs on the phone; leaderboards, AI, barcode lookup, Drive backup and watch sync are optional</title><g font-family="-apple-system, BlinkMacSystemFont, 'Segoe UI', 'Helvetica Neue', Helvetica, Arial, sans-serif"><rect x="16" y="16" width="592" height="572" rx="24" fill="#F5F5F7"/><circle cx="42" cy="46" r="4.5" fill="#E5262A"/><text x="54" y="51" font-size="16" fill="#1D1D1F" font-weight="600">On your phone</text><text x="588" y="51" font-size="13" fill="#6E6E73" text-anchor="end">Works fully offline</text><rect x="36" y="72" width="552" height="68" rx="14" fill="#FFFFFF" stroke="#E3E3E8" stroke-width="1"/><rect x="52" y="88" width="36" height="36" rx="9" fill="#EDEDF0"/><g transform="translate(61 97)" fill="none" stroke="#1D1D1F" stroke-width="1.6" stroke-linecap="round" stroke-linejoin="round"><rect x="4.5" y="1.5" width="9" height="15" rx="2"/><path d="M8 13.5h2"/></g><text x="104" y="102" font-size="15" fill="#1D1D1F" font-weight="600">Screens</text><text x="104" y="122" font-size="13" fill="#6E6E73">Today · Train · Progress · You, arranged the way you like</text><path d="M307 150.5l5 5 5-5" fill="none" stroke="#AEAEB2" stroke-width="1.6" stroke-linecap="round" stroke-linejoin="round"/><rect x="36" y="166" width="552" height="178" rx="14" fill="#FFFFFF" stroke="#E3E3E8" stroke-width="1"/><rect x="52" y="182" width="36" height="36" rx="9" fill="#EDEDF0"/><g transform="translate(61 191)" fill="none" stroke="#1D1D1F" stroke-width="1.6" stroke-linecap="round" stroke-linejoin="round"><rect x="2.5" y="2.5" width="5.5" height="5.5" rx="1.4"/><rect x="10" y="2.5" width="5.5" height="5.5" rx="1.4"/><rect x="2.5" y="10" width="5.5" height="5.5" rx="1.4"/><rect x="10" y="10" width="5.5" height="5.5" rx="1.4"/></g><text x="104" y="196" font-size="15" fill="#1D1D1F" font-weight="600">Feature modules</text><text x="104" y="216" font-size="13" fill="#6E6E73">Each one can be switched off</text><path d="M307 354.5l5 5 5-5" fill="none" stroke="#AEAEB2" stroke-width="1.6" stroke-linecap="round" stroke-linejoin="round"/><rect x="104" y="234" width="52.25" height="26" rx="13" fill="#EDEDF0"/><text x="130.125" y="251.5" font-size="12.5" fill="#1D1D1F" font-weight="500" text-anchor="middle">Food</text><rect x="164.25" y="234" width="81.875" height="26" rx="13" fill="#EDEDF0"/><text x="205.188" y="251.5" font-size="12.5" fill="#1D1D1F" font-weight="500" text-anchor="middle">Workouts</text><rect x="254.125" y="234" width="62.75" height="26" rx="13" fill="#EDEDF0"/><text x="285.5" y="251.5" font-size="12.5" fill="#1D1D1F" font-weight="500" text-anchor="middle">Cardio</text><rect x="324.875" y="234" width="48" height="26" rx="13" fill="#EDEDF0"/><text x="348.875" y="251.5" font-size="12.5" fill="#1D1D1F" font-weight="500" text-anchor="middle">GPS</text><rect x="380.875" y="234" width="52.25" height="26" rx="13" fill="#EDEDF0"/><text x="407" y="251.5" font-size="12.5" fill="#1D1D1F" font-weight="500" text-anchor="middle">Body</text><rect x="441.125" y="234" width="62.75" height="26" rx="13" fill="#EDEDF0"/><text x="472.5" y="251.5" font-size="12.5" fill="#1D1D1F" font-weight="500" text-anchor="middle">Habits</text><rect x="104" y="268" width="79.25" height="26" rx="13" fill="#EDEDF0"/><text x="143.625" y="285.5" font-size="12.5" fill="#1D1D1F" font-weight="500" text-anchor="middle">Recovery</text><rect x="191.25" y="268" width="62.75" height="26" rx="13" fill="#EDEDF0"/><text x="222.625" y="285.5" font-size="12.5" fill="#1D1D1F" font-weight="500" text-anchor="middle">Health</text><rect x="262" y="268" width="75.125" height="26" rx="13" fill="#EDEDF0"/><text x="299.562" y="285.5" font-size="12.5" fill="#1D1D1F" font-weight="500" text-anchor="middle">Watches</text><rect x="345.125" y="268" width="59" height="26" rx="13" fill="#EDEDF0"/><text x="374.625" y="285.5" font-size="12.5" fill="#1D1D1F" font-weight="500" text-anchor="middle">Ranks</text><rect x="412.125" y="268" width="107.125" height="26" rx="13" fill="#EDEDF0"/><text x="465.688" y="285.5" font-size="12.5" fill="#1D1D1F" font-weight="500" text-anchor="middle">Achievements</text><rect x="104" y="302" width="59" height="26" rx="13" fill="#EDEDF0"/><text x="133.5" y="319.5" font-size="12.5" fill="#1D1D1F" font-weight="500" text-anchor="middle">Coach</text><rect x="36" y="370" width="552" height="68" rx="14" fill="#FFFFFF" stroke="#E3E3E8" stroke-width="1"/><rect x="52" y="386" width="36" height="36" rx="9" fill="#EDEDF0"/><g transform="translate(61 395)" fill="none" stroke="#1D1D1F" stroke-width="1.6" stroke-linecap="round" stroke-linejoin="round"><path d="M13.5 3.5h-9l5 5.5-5 5.5h9"/></g><text x="104" y="400" font-size="15" fill="#1D1D1F" font-weight="600">Pure logic</text><text x="104" y="420" font-size="13" fill="#6E6E73">Targets · strength · ranks · GPS maths · readiness · AI budgets</text><path d="M307 448.5l5 5 5-5" fill="none" stroke="#AEAEB2" stroke-width="1.6" stroke-linecap="round" stroke-linejoin="round"/><rect x="36" y="464" width="176" height="104" rx="14" fill="#E5262A14" stroke="#E5262A" stroke-width="1.5"/><rect x="52" y="480" width="32" height="32" rx="9" fill="#E5262A"/><g transform="translate(59 487)" fill="none" stroke="#FFFFFF" stroke-width="1.6" stroke-linecap="round" stroke-linejoin="round"><ellipse cx="9" cy="4.5" rx="6" ry="2.5"/><path d="M3 4.5v9c0 1.4 2.7 2.5 6 2.5s6-1.1 6-2.5v-9M3 9c0 1.4 2.7 2.5 6 2.5s6-1.1 6-2.5"/></g><text x="52" y="536" font-size="15" fill="#1D1D1F" font-weight="600">SQLite</text><text x="52" y="555" font-size="13" fill="#6E6E73">All your data</text><rect x="224" y="464" width="176" height="104" rx="14" fill="#FFFFFF" stroke="#E3E3E8" stroke-width="1"/><rect x="240" y="480" width="32" height="32" rx="9" fill="#EDEDF0"/><g transform="translate(247 487)" fill="none" stroke="#1D1D1F" stroke-width="1.6" stroke-linecap="round" stroke-linejoin="round"><path d="M2.5 5.5h7M13.5 5.5h2M2.5 12.5h2M8.5 12.5h7"/><circle cx="11.5" cy="5.5" r="2"/><circle cx="6.5" cy="12.5" r="2"/></g><text x="240" y="536" font-size="15" fill="#1D1D1F" font-weight="600">Settings</text><text x="240" y="555" font-size="13" fill="#6E6E73">Theme and layouts</text><rect x="412" y="464" width="176" height="104" rx="14" fill="#FFFFFF" stroke="#E3E3E8" stroke-width="1"/><rect x="428" y="480" width="32" height="32" rx="9" fill="#EDEDF0"/><g transform="translate(435 487)" fill="none" stroke="#1D1D1F" stroke-width="1.6" stroke-linecap="round" stroke-linejoin="round"><rect x="3.5" y="8" width="11" height="8" rx="2"/><path d="M6 8V5.5a3 3 0 0 1 6 0V8"/></g><text x="428" y="536" font-size="15" fill="#1D1D1F" font-weight="600">Secure storage</text><text x="428" y="555" font-size="13" fill="#6E6E73">Your AI keys</text><text x="660" y="51" font-size="16" fill="#1D1D1F" font-weight="600">Optional</text><text x="940" y="51" font-size="13" fill="#6E6E73" text-anchor="end">Off until you connect</text><path d="M614 117.2H650" stroke="#B4B4BA" stroke-width="1.5" stroke-linecap="round" stroke-dasharray="1 5"/><circle cx="614" cy="117.2" r="2.5" fill="#B4B4BA"/><circle cx="650" cy="117.2" r="2.5" fill="#B4B4BA"/><rect x="656" y="72" width="288" height="90.4" rx="14" fill="#FFFFFF" stroke="#E3E3E8" stroke-width="1"/><rect x="896" y="88" width="32" height="32" rx="9" fill="#EDEDF0"/><g transform="translate(903 95)" fill="none" stroke="#1D1D1F" stroke-width="1.6" stroke-linecap="round" stroke-linejoin="round"><path d="M5.5 2.5h7v4.5a3.5 3.5 0 0 1-7 0zM5.5 4H3v1.2A2.8 2.8 0 0 0 5.8 8M12.5 4H15v1.2A2.8 2.8 0 0 1 12.2 8M9 10.5v3M6 15.5h6"/></g><text x="672" y="104" font-size="15" fill="#1D1D1F" font-weight="600">Leaderboards</text><text x="672" y="123" font-size="13" fill="#6E6E73">Cloudflare Worker + D1</text><rect x="672" y="128.4" width="256" height="1" rx="0" fill="#E3E3E8"/><text x="672" y="148.4" font-size="10" fill="#AEAEB2" font-weight="700" letter-spacing="0.8">SENDS</text><text x="720" y="148.4" font-size="12.5" fill="#1D1D1F" font-weight="500">Name, rounded stats, scores</text><path d="M614 223.6H650" stroke="#B4B4BA" stroke-width="1.5" stroke-linecap="round" stroke-dasharray="1 5"/><circle cx="614" cy="223.6" r="2.5" fill="#B4B4BA"/><circle cx="650" cy="223.6" r="2.5" fill="#B4B4BA"/><rect x="656" y="178.4" width="288" height="90.4" rx="14" fill="#FFFFFF" stroke="#E3E3E8" stroke-width="1"/><rect x="896" y="194.4" width="32" height="32" rx="9" fill="#EDEDF0"/><g transform="translate(903 201.4)" fill="none" stroke="#1D1D1F" stroke-width="1.6" stroke-linecap="round" stroke-linejoin="round"><path d="M9 1.8l1.7 4.9 4.9 1.7-4.9 1.7L9 15l-1.7-4.9-4.9-1.7 4.9-1.7z"/></g><text x="672" y="210.4" font-size="15" fill="#1D1D1F" font-weight="600">Gemini · Groq</text><text x="672" y="229.4" font-size="13" fill="#6E6E73">With your own API key</text><rect x="672" y="234.8" width="256" height="1" rx="0" fill="#E3E3E8"/><text x="672" y="254.8" font-size="10" fill="#AEAEB2" font-weight="700" letter-spacing="0.8">SENDS</text><text x="720" y="254.8" font-size="12.5" fill="#1D1D1F" font-weight="500">Meal text, weekly totals</text><path d="M614 330H650" stroke="#B4B4BA" stroke-width="1.5" stroke-linecap="round" stroke-dasharray="1 5"/><circle cx="614" cy="330" r="2.5" fill="#B4B4BA"/><circle cx="650" cy="330" r="2.5" fill="#B4B4BA"/><rect x="656" y="284.8" width="288" height="90.4" rx="14" fill="#FFFFFF" stroke="#E3E3E8" stroke-width="1"/><rect x="896" y="300.8" width="32" height="32" rx="9" fill="#EDEDF0"/><g transform="translate(903 307.8)" fill="none" stroke="#1D1D1F" stroke-width="1.6" stroke-linecap="round" stroke-linejoin="round"><path d="M2.5 4v10M5 4v10M7.5 4v10M10.5 4v10M13 4v10M15.5 4v10"/></g><text x="672" y="316.8" font-size="15" fill="#1D1D1F" font-weight="600">Open Food Facts</text><text x="672" y="335.8" font-size="13" fill="#6E6E73">Barcode lookup</text><rect x="672" y="341.2" width="256" height="1" rx="0" fill="#E3E3E8"/><text x="672" y="361.2" font-size="10" fill="#AEAEB2" font-weight="700" letter-spacing="0.8">SENDS</text><text x="720" y="361.2" font-size="12.5" fill="#1D1D1F" font-weight="500">Barcode number</text><path d="M614 436.4H650" stroke="#B4B4BA" stroke-width="1.5" stroke-linecap="round" stroke-dasharray="1 5"/><circle cx="614" cy="436.4" r="2.5" fill="#B4B4BA"/><circle cx="650" cy="436.4" r="2.5" fill="#B4B4BA"/><rect x="656" y="391.2" width="288" height="90.4" rx="14" fill="#FFFFFF" stroke="#E3E3E8" stroke-width="1"/><rect x="896" y="407.2" width="32" height="32" rx="9" fill="#EDEDF0"/><g transform="translate(903 414.2)" fill="none" stroke="#1D1D1F" stroke-width="1.6" stroke-linecap="round" stroke-linejoin="round"><path d="M5.2 14.5h7.6a3.2 3.2 0 0 0 .5-6.4 4.6 4.6 0 0 0-8.8 1A2.7 2.7 0 0 0 5.2 14.5z"/></g><text x="672" y="423.2" font-size="15" fill="#1D1D1F" font-weight="600">Google Drive</text><text x="672" y="442.2" font-size="13" fill="#6E6E73">Backup to your own account</text><rect x="672" y="447.6" width="256" height="1" rx="0" fill="#E3E3E8"/><text x="672" y="467.6" font-size="10" fill="#AEAEB2" font-weight="700" letter-spacing="0.8">SENDS</text><text x="720" y="467.6" font-size="12.5" fill="#1D1D1F" font-weight="500">Full backup file</text><path d="M614 542.8H650" stroke="#B4B4BA" stroke-width="1.5" stroke-linecap="round" stroke-dasharray="1 5"/><circle cx="614" cy="542.8" r="2.5" fill="#B4B4BA"/><circle cx="650" cy="542.8" r="2.5" fill="#B4B4BA"/><rect x="656" y="497.6" width="288" height="90.4" rx="14" fill="#FFFFFF" stroke="#E3E3E8" stroke-width="1"/><rect x="896" y="513.6" width="32" height="32" rx="9" fill="#EDEDF0"/><g transform="translate(903 520.6)" fill="none" stroke="#1D1D1F" stroke-width="1.6" stroke-linecap="round" stroke-linejoin="round"><rect x="4.5" y="4.5" width="9" height="9" rx="2.2"/><path d="M6.5 4.5l.5-3h4l.5 3M6.5 13.5l.5 3h4l.5-3M9 7.2v1.9l1.2 1.1"/></g><text x="672" y="529.6" font-size="15" fill="#1D1D1F" font-weight="600">Watches</text><text x="672" y="548.6" font-size="13" fill="#6E6E73">Health Connect · Apple Health</text><rect x="672" y="554" width="256" height="1" rx="0" fill="#E3E3E8"/><text x="672" y="574" font-size="10" fill="#AEAEB2" font-weight="700" letter-spacing="0.8">SENDS</text><text x="720" y="574" font-size="12.5" fill="#1D1D1F" font-weight="500">Nothing, it stays on the phone</text><path d="M24 614H48" stroke="#B4B4BA" stroke-width="2" stroke-linecap="round" stroke-dasharray="1 5"/><text x="58" y="618" font-size="13" fill="#6E6E73">Optional connection. Nothing leaves the phone except what’s listed.</text></g></svg>
